<svg xmlns="http://www.w3.org/2000/svg" xmlns:xlink="http://www.w3.org/1999/xlink" width="248" height="162" stroke="#000" stroke-linecap="round" stroke-linejoin="round" fill="#fff" fill-rule="evenodd"><style><![CDATA[.B{fill:#093f68}.C{fill:#ffc9b0}.D{fill:#2563eb}.E{fill:#f56132}.F{fill:#725858}.G{fill:#70cc40}.H{fill:#dfeaef}]]></style><g stroke="none" fill-rule="nonzero"><path d="M19.53 12.58a3.762 3.762 0 0 1 3.77-3.77h204.85a3.762 3.762 0 0 1 3.77 3.77v139.97a3.762 3.762 0 0 1-3.77 3.77H23.3a3.762 3.762 0 0 1-3.77-3.77z"/><path d="M228.16 157.32H23.3099c-2.636 0-4.7744-2.134-4.78-4.77v-140c.0056-2.636 2.144-4.77 4.78-4.77H228.16c2.632.0055 4.7644 2.1379 4.7699 4.77v140c-.0055 2.6321-2.1379 4.7645-4.7699 4.77zM23.3099 9.81c-1.5314 0-2.7745 1.2385-2.78 2.77v140c.0055 1.5314 1.2486 2.77 2.78 2.77H228.16c1.5275-.0055 2.7645-1.2425 2.77-2.77v-140c-.0055-1.5276-1.2425-2.7645-2.77-2.77z" class="B"/><path d="M23.31 8.81h204.85c2.0821 0 3.77 1.6879 3.77 3.77v12.48h0-212.4 0V12.58a3.77 3.77 0 0 1 1.1077-2.6693c.7092-.7073 1.6707-1.1033 2.6723-1.1007z" class="D"/><path d="M231.93 26.06H19.53c-.5523 0-1.0001-.4477-1.0001-1V12.58c.0056-2.636 2.144-4.77 4.78-4.77H228.16c2.632.0055 4.7644 2.1379 4.7699 4.77v12.48a1 1 0 0 1-.9999 1zm-211.4001-2H230.93V12.58c-.0055-1.5275-1.2425-2.7645-2.77-2.77H23.3099c-1.5314 0-2.7745 1.2386-2.78 2.77z" class="B"/><path d="M222.6699 142.04v14H187.36v-14l.1599-4h0l-10.23-51.98 8.6701-3.3 13.3699 37.33 9.74 8.35c3.6078-.0026 7.0686 1.4294 9.6196 3.9804a13.59 13.59 0 0 1 3.9804 9.6196z" class="D"/><path d="M222.6699 157.01H187.36a1 1 0 0 1-1-1v-14l.15-4-10.2001-51.77c-.0959-.4774.1658-.9545.6201-1.13l8.6699-3.3a1 1 0 0 1 .7801 0 1 1 0 0 1 .52.57l13.28 37.12 9.26 7.95c7.9101.2111 14.2166 6.6771 14.2299 14.59v14a1 1 0 0 1-1 .97zm-34.31-2H221.67v-13c-.011-6.9542-5.6458-12.589-12.6001-12.6-.2383 0-.4688-.0851-.65-.24l-9.74-8.35a1.001 1.001 0 0 1-.29-.42L185.39 84.03l-6.93 2.64 10.0699 51.08c.0049.0632.0049.1267 0 .19a.482.482 0 0 1 0 .12c-.0999 1.12-.15 2.41-.15 3.95z" class="B"/><path d="M199.33 121.82l5.4901 26.18 6.1999-21.82-11.69-4.36z"/><path d="M204.82 149h0a1 1 0 0 1-.94-.79l-5.49-26.19a1 1 0 0 1 1.33-1.18l11.69 4.36a1 1 0 0 1 .61 1.21l-6.2 21.83a1 1 0 0 1-1 .76zm-4.14-25.61l4.29 20.44 4.84-17z" class="B"/><path d="M223.86 76.55a30.261 30.261 0 0 1 12 7.93c3.88 4.47 6.9999 10.31 5.18 16.12-2.14 6.71-5 13.28-9.39 18.8-2.47 3.11-16.68-5.19-20.1901-6.68l-15.1199-6.4c-3.36-1.48-4.29-2.81-3.82-6.55 1-7.82 5.09-16.54 11.64-21.17 5.5-3.9 13.43-4.37 19.7-2.05z" class="F"/><path d="M229.7 121.07c-3.49 0-9.28-2.74-15.44-5.85l-3.22-1.58-5.19-2.14-9.94-4.23c-3.85-1.69-4.93-3.53-4.41-7.59 1.14-8.91 5.87-17.49 12-21.86 5.47-3.86 13.77-4.73 20.66-2.17h0c4.7441 1.6811 9.0093 4.488 12.43 8.18 3.61 4.16 7.47 10.5 5.38 17.08-2.53 7.92-5.66 14.17-9.57 19.11a3.24 3.24 0 0 1-2.7 1.05zm-13.8-44.92c-3.9756-.0721-7.8788 1.0686-11.19 3.27-5.75 4.08-10.12 12.08-11.22 20.47-.41 3.19.16 4.17 3.22 5.51l9.91 4.21 5.2 2.1901c.75.3199 1.89.8999 3.35 1.6299 3.51 1.78 14.21 7.19 15.67 5.35 3.75-4.74 6.77-10.79 9.22-18.48 1.82-5.7-1.71-11.39-5-15.16-3.188-3.4285-7.1475-6.0476-11.55-7.64h0c-2.4371-.8955-5.0135-1.3526-7.61-1.35z" class="B"/><path d="M192.3087 108.6952c-3.1928-1.354-4.7673-4.7926-3.5302-7.71s4.8036-4.1761 7.9964-2.8221 4.7673 4.7926 3.5301 7.71-4.8035 4.176-7.9963 2.8221z" class="C"/><path d="M194.95 110.26c-1.0316-.0017-2.0522-.2126-3-.62a7.529 7.529 0 0 1-3.9399-3.77c-.7846-1.6538-.8246-3.5642-.11-5.2495s2.1156-2.9846 3.8499-3.5705c3.6914-1.2401 7.7268.4789 9.39 4a6.49 6.49 0 0 1 .12 5.25h0a6.48 6.48 0 0 1-3.86 3.56c-.7872.2748-1.6163.4102-2.45.4zm-.78-11.62a5.313 5.313 0 0 0-1.77.3c-1.2068.3954-2.1841 1.2929-2.6804 2.4618a4.4 4.4 0 0 0 .0904 3.6382c.5896 1.2488 1.6237 2.2329 2.9 2.76 1.2657.5549 2.6941.612 4 .1601a4.42 4.42 0 0 0 2.68-2.4601h0a4.43 4.43 0 0 0-.09-3.63 5.53 5.53 0 0 0-2.9-2.7699c-.7043-.3034-1.4632-.4599-2.23-.4601zm6.15 7.25h0z" class="B"/><path d="M225.8846 122.9387c-3.1928-1.3539-4.7672-4.7926-3.53-7.71s4.8035-4.1761 7.9964-2.8222 4.7672 4.7927 3.53 7.7101-4.8035 4.1761-7.9964 2.8221z" class="C"/><path d="M228.5099 124.5a7.691 7.691 0 0 1-2.9999-.62c-3.244-1.6815-4.5574-5.6416-2.9612-8.9284s5.5207-4.703 8.8479-3.1932 4.8457 5.396 3.4233 8.7615c-1.1084 2.4778-3.5966 4.0473-6.3101 3.9801zm-.7699-11.6201c-1.9045-.0625-3.6599 1.0262-4.45 2.7601-.7634 2.5801.5318 5.3222 3.0095 6.3716s5.3482.0718 6.6704-2.2716h0c.9377-2.5957-.405-5.4603-2.9999-6.4a5.711 5.711 0 0 0-2.23-.4601z" class="B"/><path d="M204.2199 127.8201c-4.9002-2.0658-8.7759-5.998-10.7706-10.9275a20 20 0 0 1 .1407-15.3426c1.67-4 2.89-8 5.55-11.5.9998-1.4187 2.3185-2.5832 3.8499-3.4 1.5715-.8228 3.4523-.7965 5 .07 1.77 1.12 2.37 3.39 3.7801 4.85 1.8499 1.9925 4.041 3.6384 6.4699 4.86 3.0801 1.51 6.68 2.5 9.9101 1.37 2.76-1 4.07-1.86 6 .9a7.002 7.002 0 0 1 1.11 3c.39 2.9-.5901 5.8-1.5901 8.56-2.2799 6.22-5.3799 12.75-11.3099 16.28-5.4999 3.2845-12.2334 3.7597-18.1401 1.2801z" class="C"/><path d="M212.03 130.4c-2.817.0023-5.6057-.5622-8.2-1.66h0c-10.6846-4.5473-15.6723-16.8848-11.15-27.58l1.11-2.75c1.0872-3.2022 2.626-6.2328 4.57-9 1.0942-1.5434 2.5365-2.8075 4.21-3.69a6.22 6.22 0 0 1 5.92.12c1.1192.8073 2.0251 1.8747 2.64 3.11a10.351 10.351 0 0 0 1.33 1.89c1.7698 1.9091 3.866 3.4871 6.19 4.66 3.58 1.75 6.65 2.2 9.14 1.32l.81-.29c2.24-.82 4.17-1.53 6.32 1.58.7015 1.0359 1.1408 2.2267 1.28 3.47.41 3-.54 6-1.64 9-2.27 6.2-5.43 13-11.74 16.8a21.119 21.119 0 0 1-10.79 3.02zm-6.5-43.34a5.07 5.07 0 0 0-2.11.49 10.001 10.001 0 0 0-3.47 3.11c-1.8292 2.6079-3.2771 5.4633-4.3 8.48l-1.13 2.8a19.06 19.06 0 0 0 10.09 25h0a19.11 19.11 0 0 0 17.19-1.18c5.77-3.43 8.73-9.9 10.88-15.77 1-2.77 1.89-5.47 1.53-8.08-.0973-.9286-.4163-1.8203-.93-2.6-1.27-1.83-1.79-1.64-4-.83l-.84.3c-3 1.06-6.6.58-10.68-1.41-2.5368-1.27-4.8234-2.9875-6.75-5.07-.6192-.6851-1.1562-1.4402-1.6-2.25-.4723-.9549-1.1564-1.7894-2-2.44a3.53 3.53 0 0 0-1.88-.55zm6.51 26.7401h-.22c-1.1472-.2536-2.2384-.7145-3.22-1.36-.4633-.2987-.5974-.916-.3-1.3801a1 1 0 0 1 1.39-.2899c.6206.4182 1.2929.7543 2 .9999.2188-1.359.2559-2.7411.11-4.1099a1 1 0 1 1 2-.1601c.17 2.22.18 5.0501-.82 6-.267.21-.6008.3165-.94.3001zm1.87 43.2199a1 1 0 0 1-1-1v-12.83a1 1 0 1 1 2 0v12.83a1 1 0 0 1-1 1z" class="B"/><path d="M185.96 82.76s-1.5101-5.34-1.3201-6.65.7201-3.57 0-4.51-3.08-1.4-3.08-1.4-1.41-6.57-2.25-7.61-1.48-1-1.9999.57 1.28 7.34 1.28 7.34-5.2601 2-5.3501 5.44c-.0349 2.0321 1.2034 3.8696 3.1001 4.6l1 5.54z" class="C"/><g class="B"><path d="M177.2899 87.06c-.1709.0025-.3396-.0388-.49-.12a1 1 0 0 1-.5-.7l-.9-5a5.76 5.76 0 0 1-3.2099-5.33c.0899-3.17 3.4899-5.18 5.1399-6-.5699-1.94-1.49-5.58-.9999-7.08.2499-.74.6899-1.75 1.67-1.94a2.35 2.35 0 0 1 2.0599 1.06c.83 1 1.87 5.36 2.33 7.41a6.06 6.06 0 0 1 3 1.62c.89 1.14.58 3.07.32 4.62 0 .23-.07.45-.1.64.2117 2.1192.6441 4.2106 1.2901 6.24.1425.5006-.1228 1.0269-.6101 1.21l-8.67 3.3a.999.999 0 0 1-.33.07zm1.09-24l-.15.4c-.26.8.45 4.1 1.26 6.71a1 1 0 0 1-.6 1.23c-1.2899.49-4.6399 2.25-4.7 4.54a3.83 3.83 0 0 0 2.4301 3.63 1 1 0 0 1 .6499.76l.79 4.36 6.69-2.55c-.4799-1.79-1.27-5-1.1-6.18 0-.21.07-.44.11-.68.14-.85.43-2.62.0801-3.07-.7376-.5288-1.5917-.8718-2.49-1a1 1 0 0 1-.7801-.77c-.65-3-1.62-6.62-2.06-7.18-.04-.09-.0899-.14-.13-.19z"/><path d="M179.5199 78.33a1 1 0 0 1-.9999-.73c-.1828-.7242-.0675-1.4915.32-2.13-.5641-.1176-1.0983-.349-1.57-.68-.5504-.3376-.8638-.9565-.8101-1.6.1501-1.66 3.0001-3.16 4.6301-3.91a1.003 1.003 0 0 1 1.325.505 1.003 1.003 0 0 1-.505 1.325c-1.2352.5096-2.3721 1.2304-3.36 2.13a2.25 2.25 0 0 0 2.37-.08c.4479-.3181 1.0685-.2154 1.39.23a1 1 0 0 1-.2 1.38c-.9.68-1.81 1.81-1.67 2.28.0739.256.0425.5308-.0869.7636a1 1 0 0 1-.6031.4764c-.0744.024-.1519.0374-.2301.04z"/><use xlink:href="#B"/><use xlink:href="#B" x="-17.54" y="-6.9"/><path d="M230.4699 107.76a2.089 2.089 0 0 1-.69-.12l-9.05-3.34c-.9855-.4145-1.4707-1.5308-1.1015-2.5343s1.4624-1.5389 2.4816-1.2157l9.06 3.34a2 2 0 0 1-.7001 3.87zM212.01 101.5c-.2864.0001-.5694-.0613-.8301-.18l-8.7699-4c-1.0051-.4612-1.4462-1.6498-.985-2.655s1.6498-1.4462 2.655-.985l8.77 4a2 2 0 0 1-.84 3.82zm2.03 17.37c-6.05 0-10.25-5.9-10.3-6-.3176-.4529-.2079-1.0774.245-1.395a1.002 1.002 0 0 1 1.3951.245c.1999.29 5 7 11.4099 4.59a1 1 0 0 1 .7652.0228c.2419.1087.4307.3092.5248.5572a1 1 0 0 1-.58 1.29 9.62 9.62 0 0 1-3.46.69z"/></g><path d="M107.06 142.04v14H73.1299v-15a49.291 49.291 0 0 1-20.42-6.7C44.2099 129.16 40.64 118 40.64 118l8.8599-4.13s4.88 5.5 8.2801 8.72c6.19 5.89 18.9299 6 21.9999 5.93H93.45c7.4861-.0111 13.5714 6.034 13.61 13.52z" class="D"/><g class="B"><path d="M107.06 157.02H73.13c-.5522 0-1-.4477-1-1v-14.14c-7.0516-.8037-13.8501-3.1051-19.94-6.75-8.72-5.3-12.35-16.42-12.5-16.89a1 1 0 0 1 .53-1.21l8.86-4.13a1 1 0 0 1 1.17.24c0 .06 4.89 5.51 8.22 8.67 6 5.69 18.79 5.71 21.3 5.65h13.69c8.0588.011 14.589 6.5412 14.6 14.6v14a1 1 0 0 1-1 .96zm-32.93-2h31.93v-13c-.0055-6.9565-5.6435-12.5945-12.6-12.6H79.79c-3.7.07-16.32-.13-22.7-6.2-2.79-2.65-6.51-6.75-7.84-8.23l-7.36 3.51c1 2.62 4.58 10.85 11.34 15a48.69 48.69 0 0 0 20 6.55 1 1 0 0 1 .91 1z"/><path d="M83.72 128.06h6.84v27.96h-6.84z"/><path d="M90.59 157.02h-6.84a1 1 0 0 1-1-1v-28a1 1 0 0 1 1-1h6.84a1 1 0 0 1 1 1v28a1 1 0 0 1-1 1zm-5.84-2h4.84v-26h-4.84z"/></g><path d="M83.9499 69.5a6.51 6.51 0 0 1 1.76 3c3.8501-3.3 9.6901-3.63 14.33-1.59s8.15 6.13 10.41 10.67c2.0001 4.06 2.49 8.74 2.54 13.22s-1.0799 8.64-1 13.09c0 1.58-.15 1.89-1.71 2.12a32.451 32.451 0 0 1-4.41 0h-34.76c-.4699 0-7.5.29-7.57 0-.28-.95.1501-2.07.1901-3 .14-3.25-1-6.88-1.13-10.19-.2501-5.13-1.27-9.61.84-14.43a31.07 31.07 0 0 1 9.5499-12.22c1.7016-1.4804 3.8171-2.4021 6.06-2.64a6.8 6.8 0 0 1 4.9 1.97z" class="F"/><path d="M65.43 111.1601c-2.63 0-2.69-.2301-2.8601-.88a5.242 5.242 0 0 1 0-2.4c.0577-.2974.0979-.598.1201-.9001a29.073 29.073 0 0 0-.56-5.61 41.072 41.072 0 0 1-.56-4.4899l-.22-3.0001c-.33-3.9999-.64-7.77 1.13-11.8299A31.86 31.86 0 0 1 72.34 69.44a12.091 12.091 0 0 1 6.64-2.85c2.107-.0392 4.1394.7803 5.63 2.27h0c.6218.6128 1.1358 1.3261 1.52 2.11a15.15 15.15 0 0 1 14.27-.8999c4.43 1.9399 8.3 5.8999 10.91 11.1299 2.26 4.55 2.6 9.6801 2.64 13.65a48.005 48.005 0 0 1-.5 6.54c-.3162 2.1691-.4766 4.358-.48 6.5501 0 1.8999-.32 2.8-2.57 3.1299a16.647 16.647 0 0 1-3.16 0h-1.39-34.74-.81l-4.87.0901zm-.94-1.4301h0zm0-.58c.94 0 2.88 0 5.78-.0999h.88 34.74 1.49a16.011 16.011 0 0 0 2.78 0 2.815 2.815 0 0 0 .83-.2c.0162-.2998.0162-.6003 0-.9001.0022-2.289.1693-4.5749.5-6.84a46.624 46.624 0 0 0 .48-6.27c0-3.76-.35-8.61-2.43-12.78-2.4-4.8199-5.93-8.44-9.92-10.2-4.59-2-9.93-1.44-13.28 1.43a1 1 0 0 1-1 .2001 1 1 0 0 1-.67-.7101c-.2619-.9612-.7764-1.8348-1.49-2.53-1.1057-1.0969-2.6025-1.7086-4.16-1.6999-2.0354.2477-3.9504 1.0973-5.5 2.44-4.0314 3.0938-7.2108 7.1609-9.24 11.8199-1.5701 3.6001-1.2901 7-1 10.86.09 1 .17 2.06.22 3.12a37.986 37.986 0 0 0 .55 4.2601 31.002 31.002 0 0 1 .58 6 10.806 10.806 0 0 1-.15 1.16 8.283 8.283 0 0 0-.03.9399z" class="B"/><path d="M83.72 125.84h6.87 0v3.93c0 .7691-.3056 1.5067-.8494 2.0506a2.9 2.9 0 0 1-2.0506.8494h-1a2.9 2.9 0 0 1-2.0507-.8494c-.5438-.5439-.8493-1.2815-.8493-2.0506v-3.93h-.07z" class="C"/><path d="M87.66 133.68h-1c-2.1555 0-3.9045-1.7444-3.91-3.9v-3.94a1 1 0 0 1 1-1h6.84a1 1 0 0 1 1 1v3.94c-.0026 1.0388-.4185 2.0338-1.1558 2.7654A3.91 3.91 0 0 1 87.66 133.68zm-2.94-6.84v2.94c.0055 1.051.859 1.9 1.91 1.9h1c.5039 0 .9872-.2001 1.3434-.5565s.5566-.8396.5566-1.3435v-2.94z" class="B"/><path d="M62.47 108.08c0-3.1689 2.792-5.72 6.26-5.72s6.26 2.5511 6.26 5.72-2.792 5.72-6.26 5.72-6.26-2.5511-6.26-5.72z" class="C"/><path d="M68.73 114.81c-3.6427-.2819-6.3975-3.4147-6.2113-7.0635s3.2456-6.4848 6.898-6.3944 6.5677 3.0743 6.5732 6.7279a6.999 6.999 0 0 1-2.2361 4.8685A7 7 0 0 1 68.73 114.81zm0-11.45c-2.5427.2745-4.4115 2.5129-4.2278 5.0637s2.354 4.4983 4.9097 4.4057 4.5794-2.192 4.5781-4.7494c-.1506-2.7552-2.5047-4.8676-5.26-4.72z" class="B"/><path d="M98.9399 108.08c0-3.1689 2.792-5.72 6.26-5.72s6.26 2.5511 6.26 5.72-2.7919 5.72-6.26 5.72-6.26-2.5511-6.26-5.72z" class="C"/><path d="M105.1999 114.81c-3.6444-.2765-6.4043-3.4074-6.2215-7.0577s3.2416-6.4899 6.8955-6.401 6.571 3.0738 6.5761 6.7287c-.1464 3.8592-3.3907 6.8707-7.2501 6.73zm0-11.45c-2.5446.2694-4.4185 2.506-4.2381 5.0585s2.3503 4.5033 4.9075 4.4121 4.5826-2.1917 4.5806-4.7506c-.1506-2.7511-2.4984-4.8618-5.25-4.72z" class="B"/><path d="M87.14 126.74a20.17 20.17 0 0 1-16.08-8.08c-4.22-5.66-4.41-12.43-3.0701-19.11.6401-3.2 1.6301-4.35 4.3301-5.62a33.499 33.499 0 0 0 8.53-6.5c-.683 3.9043-2.5508 7.5038-5.35 10.31 3.7064-.2114 7.37-.9004 10.9-2.05 3.88-1.47 7.24-4 10.53-6.52l-5.24 11.19a53.111 53.111 0 0 1 8.56-4.46c.41-.17 6.93-2.13 6.93-1.8v12.6c.0106 5.3182-2.0973 10.4216-5.8578 14.1822A20 20 0 0 1 87.14 126.74z" class="C"/><g class="B"><path d="M87.1399 127.74c-6.6461-.0188-12.8973-3.1592-16.8799-8.48-3.8401-5.16-4.9101-11.67-3.2501-19.91.68-3.41 1.8301-4.89 4.8801-6.32a32.777 32.777 0 0 0 8.2599-6.32 1 1 0 0 1 1.69.89 20.379 20.379 0 0 1-3.91 8.88c2.7678-.2394 5.4951-.8204 8.1201-1.73 3.78-1.42 7.0799-3.94 10.28-6.37a1 1 0 0 1 1.2299 0 1 1 0 0 1 .28 1.2L93.99 97.8c1.9018-1.0625 3.8653-2.0109 5.8799-2.84.06 0 6.85-2.39 7.8501-1.72.2823.1918.4538.5088.46.85v12.6c-.0111 11.6172-9.423 21.0335-21.0401 21.05zM78.97 90.55a27.768 27.768 0 0 1-6.22 4.28c-2.35 1.11-3.18 1.93-3.78 4.92-1.5401 7.64-.5901 13.6401 2.8999 18.32 4.8761 6.6352 13.4711 9.3744 21.2872 6.7842s13.0743-9.9202 13.0228-18.1542V95.24c-1.71.41-5.0999 1.41-5.56 1.58-2.9224 1.2052-5.7304 2.6712-8.39 4.38a1 1 0 0 1-1.4499-1.26l3.5599-7.58c-2.3323 1.741-4.8801 3.1729-7.5799 4.26-3.6153 1.1897-7.3703 1.9023-11.1701 2.12a1 1 0 0 1-.8-1.7 18.43 18.43 0 0 0 4.1801-6.49zm8.07 25.13a10.666 10.666 0 0 1-1.87-.16 1 1 0 0 1-.81-1.15 1 1 0 0 1 1.15-.82 8.809 8.809 0 0 0 2.25.09 16.081 16.081 0 0 0-1.5-3.83c-.2413-.4866-.0501-1.0768.4307-1.3295s1.0755-.0752 1.3393.3995c1 2 2.14 4.58 1.58 5.82a1.38 1.38 0 0 1-1 .81c-.515.1174-1.0419.1744-1.57.17zm11.27 41.34a1 1 0 0 1-1-1v-12.83a1 1 0 1 1 2 0v12.83a1 1 0 0 1-1 1z"/><use xlink:href="#C"/><use xlink:href="#B" x="-145.32" y="-1.57"/><path d="M91.97 104.12c-1.1046 0-2-.8954-2-2s.8954-2 2-2l9.65-.2a2.001 2.001 0 0 1 2.045 1.955c.0249 1.1046-.8505 2.0202-1.955 2.045l-9.65.2zm-9.84.7h-.11l-9.63-.5301a2.003 2.003 0 1 1 .22-4l9.63.53c1.1046.0304 1.9754.9505 1.945 2.0551s-.9504 1.9753-2.055 1.945zm5.3999 16.39a10.48 10.48 0 0 1-8.4199-4.63 1 1 0 0 1 .34-1.37c.4697-.2851 1.0815-.1378 1.37.3299.16.26 3.78 5.9401 11 2.64.5025-.2319 1.098-.0125 1.33.4901s.0126 1.098-.4901 1.33c-1.6035.7663-3.353 1.1789-5.13 1.21z"/></g><path d="M137.59 77.81s-4.56-1.6-8.88 4c-4 5.24-3.8201 12.75-4 19-.2417 6.2782-1.4007 12.4873-3.4401 18.43-1.82 5.69.82 11.88 5.3401 15.32 3.6222 2.5533 7.9023 4.0112 12.3299 4.2 3.6401.29 7.18-.69 10.7601-.28 7.7335 1.0471 15.3279-2.7085 19.1899-9.49 1.001-1.5845 1.6269-3.3768 1.83-5.24a18.799 18.799 0 0 0-.69-5.42c-1.4424-6.3448-2.2133-12.8238-2.2999-19.33.088-5.2289-1.1069-10.3998-3.48-15.06-5.5701-10.18-20.3201-14.84-26.66-6.13z" class="F"/><path d="M140.3199 139.7899h-1.53c-5.31-.4299-9.5199-1.8699-12.8599-4.4099-5.1801-3.93-7.52-10.6801-5.68-16.42 2.0189-5.8532 3.1612-11.9727 3.3899-18.16V99c.16-6 .3301-12.76 4.19-17.76 3.72-4.81 7.6701-4.77 9.28-4.5a12.58 12.58 0 0 1 11-4.42c7.1466.7073 13.4864 4.8889 16.95 11.18a32.999 32.999 0 0 1 3.6 15.53c.085 6.4319.8459 12.8371 2.2701 19.11l.0899.39a18.122 18.122 0 0 1 .6301 5.33c-.2224 2.0154-.9069 3.9523-2.0001 5.66-4.0507 7.139-12.0354 11.0977-20.17 10a26.998 26.998 0 0 0-5.3699.12c-1.21.04-2.5201.1499-3.7901.1499zm-4.35-61.1999c-1.46 0-4 .57-6.5 3.83-3.46 4.47-3.63 10.91-3.7799 16.59v1.81c-.2361 6.3712-1.4122 12.6725-3.49 18.7-1.5801 4.94.4699 10.79 5 14.22 2.9999 2.2999 6.8899 3.61 11.81 4 1.6682.0844 3.3405.0308 5-.16 1.9142-.2358 3.8475-.276 5.7699-.12 7.3396.9913 14.5469-2.5688 18.2201-9a11.172 11.172 0 0 0 1.69-4.8 16.152 16.152 0 0 0-.5901-4.75l-.0799-.39a93.728 93.728 0 0 1-2.3201-19.53 31.138 31.138 0 0 0-3.36-14.59c-3-5.56-9.31-9.73-15.3199-10.13a10.52 10.52 0 0 0-9.6201 4.13 1 1 0 0 1-1.13.35c-.4241-.1119-.8614-.1657-1.3-.16z" class="B"/><path d="M165.84 141.83v14.19h-40.7v-14.19a13.76 13.76 0 0 1 4.0302-9.7398c2.583-2.5829 6.087-4.0329 9.7398-4.0302h13.15c4.8149-.0081 9.2832 2.503 11.78 6.62a13.59 13.59 0 0 1 2 7.15z" class="D"/><g class="B"><path d="M165.84 157.0201h-40.7c-.5523 0-1-.4478-1-1.0001v-14.1899a14.589 14.589 0 0 1 2-7.45c2.6534-4.5262 7.5034-7.3107 12.75-7.3201h13.15c3.9206-.0079 7.683 1.5453 10.4563 4.3167s4.329 6.5328 4.3237 10.4534V156.02c.0001.5446-.4356.9891-.98 1.0001zm-39.7-2h38.7v-13.19c.0027-3.3894-1.3433-6.6406-3.7408-9.0363s-5.6498-3.7391-9.0392-3.7338h-13.15a12.76 12.76 0 0 0-12.77 12.7701z"/><path d="M134.01 157.02a1 1 0 0 1-1-1v-13a1 1 0 1 1 2 0v13a1 1 0 0 1-1 1zm22.96 0a1 1 0 0 1-1-1v-13a1 1 0 1 1 2 0v13a1 1 0 0 1-1 1z"/></g><path d="M143.02 126.07h6.2999 0v3.62c0 1.4746-1.1953 2.67-2.67 2.67h-.9999c-1.4747 0-2.6701-1.1954-2.6701-2.67v-3.62h.0401z" class="C"/><path d="M146.65 133.37h-.9501c-.976 0-1.912-.3877-2.6021-1.0779s-1.0779-1.6261-1.0779-2.6021v-3.62c0-.5523.4478-1 1.0001-1h6.2999a1 1 0 0 1 1 1v3.62c0 2.0285-1.6414 3.6745-3.6699 3.68zm-2.6301-6.3v2.62a1.68 1.68 0 0 0 .4921 1.188c.3151.315.7424.492 1.1879.492h.9501c.9239-.0055 1.6699-.7561 1.6699-1.68v-2.62z" class="B"/><use xlink:href="#D" class="C"/><path d="M128.17 115.98c-3.9301 0-7.12-2.81-7.12-6.27s3.1899-6.28 7.12-6.28 7.12 2.82 7.12 6.28-3.2 6.27-7.12 6.27zm0-10.55c-2.8201 0-5.12 1.92-5.12 4.28s2.2999 4.27 5.12 4.27 5.12-1.92 5.12-4.27-2.3-4.28-5.12-4.28z" class="B"/><use xlink:href="#D" x="35.68" class="C"/><path d="M163.85 115.98c-3.9301 0-7.1201-2.81-7.1201-6.27s3.19-6.28 7.1201-6.28 7.1199 2.82 7.1199 6.28-3.2 6.27-7.1199 6.27zm0-10.55c-2.8301 0-5.1201 1.92-5.1201 4.28s2.29 4.27 5.1201 4.27 5.12-1.92 5.12-4.27-2.3001-4.28-5.12-4.28z" class="B"/><path d="M157.4 94.07l-6-7.68-2.16 7.65h-9.42l-2.23-6.88-2.62 6.84h-7.3v14.46c.0056 10.1913 8.2687 18.45 18.46 18.45h0c4.8976 0 9.5945-1.9463 13.0567-5.4103A18.46 18.46 0 0 0 164.59 108.44V94.09z" class="C"/><path d="M146.1699 127.8899c-10.7413-.0055-19.4489-8.7087-19.46-19.4499V93.98a1 1 0 0 1 1-1h0 6.61l2.36-6.2a1 1 0 0 1 1.89 0l2 6.17h7.93l2.0001-6.93a1 1 0 0 1 1.7499-.34l5.68 7.3h6.7401a1 1 0 0 1 .9999 1v14.3499a19.47 19.47 0 0 1-5.6813 13.8363c-3.6604 3.6717-8.6341 5.7318-13.8187 5.7237zm-17.46-32.9099v13.46c0 9.6429 7.8171 17.46 17.46 17.46s17.46-7.8171 17.46-17.46V95.08h-6.24a1 1 0 0 1-.7799-.39l-4.7601-6.12-1.6299 5.75c-.1246.4452-.5381.747-1.0001.73h0-9.4099c-.4326-.0004-.816-.2788-.9501-.69l-1.2699-4.19-1.6001 4.19a1 1 0 0 1-.94.6399h0zM146.08 112.5c-.5831-.0025-1.165-.0527-1.74-.15-.5523-.0939-.9238-.6177-.83-1.17s.6177-.9239 1.17-.83c.6603.1136 1.3322.1438 2 .09a15.266 15.266 0 0 0-1.37-3.43 1.002 1.002 0 0 1 .43-1.35 1.002 1.002 0 0 1 1.35.43c.95 1.8299 2 4.26 1.4601 5.43-.1718.3925-.5149.6841-.9301.79-.5038.1249-1.0209.1887-1.54.19z" class="B"/><path d="M125.14 146.07h8.87v9.95h-8.87z" class="C"/><use xlink:href="#E" class="B"/><path d="M156.97 146.07h8.87v9.95h-8.87z" class="C"/><g class="B"><use xlink:href="#E" x="31.83"/><use xlink:href="#C" x="58.5901" y="-2.6"/><path d="M134.5199 106.74a2.02 2.02 0 1 1 4.0401 0 2.02 2.02 0 1 1-4.0401 0zm16.0701-5.24c-1.1046 0-2-.8954-2-2s.8954-2 2-2l9.64-.21a2.001 2.001 0 0 1 2.045 1.955c.0249 1.1046-.8505 2.0202-1.955 2.045l-9.73.21zm-9.87.72h-.13l-9.63-.52c-1.1046-.0608-1.9508-1.0055-1.89-2.11s1.0055-1.9508 2.11-1.89l9.63.53c1.1046.0304 1.9753.9504 1.945 2.055a2.001 2.001 0 0 1-2.055 1.945zm5.2999 15.98a16.58 16.58 0 0 1-8.08-2.46c-.4562-.3052-.5812-.9211-.28-1.38a1 1 0 0 1 1.39-.29c.29.2 7.25 4.7 12.3001.1a1 1 0 0 1 1.4099.06c.1816.1957.2774.4558.2662.7225a1 1 0 0 1-.3262.6975c-1.8191 1.6723-4.2093 2.5847-6.68 2.55z"/></g><use xlink:href="#F" class="E"/><path d="M27.9 20.5a3.58 3.58 0 0 1-2.5314-6.1114A3.58 3.58 0 0 1 31.48 16.92a3.57 3.57 0 0 1-3.58 3.58zm0-5.15a1.58 1.58 0 0 0-1.1137 2.7008c.454.451 1.1352.5837 1.7253.3361s.9724-.827.9684-1.4669c-.0164-.8593-.7206-1.5456-1.58-1.54z" class="B"/><path d="M35.3499 16.95c0-1.4293 1.1507-2.58 2.58-2.58s2.5801 1.1507 2.5801 2.58-1.1508 2.58-2.5801 2.58-2.58-1.1507-2.58-2.58z" fill="#ffbc0e"/><path d="M37.93 20.5a3.58 3.58 0 0 1-2.5314-6.1114A3.58 3.58 0 0 1 41.51 16.92c0 1.9772-1.6028 3.58-3.58 3.58zm0-5.15a1.58 1.58 0 0 0-1.1137 2.7008c.454.451 1.1352.5837 1.7253.3361A1.58 1.58 0 0 0 39.51 16.92c-.0164-.8593-.7206-1.5456-1.58-1.54z" class="B"/><use xlink:href="#F" x="20.0601" class="G"/><path d="M47.96 20.5a3.58 3.58 0 0 1-2.545-6.1079A3.58 3.58 0 0 1 51.53 16.92c0 1.9733-1.5968 3.5745-3.57 3.58zm0-5.15a1.58 1.58 0 0 0-1.1272 2.6972c.4532.4531 1.1352.5877 1.7265.3406A1.58 1.58 0 0 0 49.53 16.92c-.0164-.8554-.7145-1.5402-1.57-1.54z" class="B"/><path d="M152.9799 1.5H245.68v55.53h-92.7001z"/><path d="M245.68 58.03h-92.7c-.5522 0-1-.4477-1-1V1.5c0-.5523.4478-1 1-1h92.7a1 1 0 0 1 1 1v55.53a1 1 0 0 1-1 1zm-91.7-2h90.7V2.5h-90.7z" class="B"/><path d="M171.42 38.59h11.73v9.7h-11.73z" class="E"/><path d="M183.15 49.29h-11.73a1 1 0 0 1-1-1v-9.7a1 1 0 0 1 1-1h11.73a1 1 0 0 1 1 1v9.7a1 1 0 0 1-1 1zm-10.73-2h9.73v-7.7h-9.73z" class="B"/><path d="M194.29 23.05h11.73v25.24h-11.73z" fill="#ffbc0e"/><path d="M206.0199 49.29H194.29a1 1 0 0 1-1-1V23.05a1 1 0 0 1 1-1h11.7299a1 1 0 0 1 1 1v25.24a1 1 0 0 1-1 1zm-10.7299-2h9.7299V24.05H195.29z" class="B"/><path d="M217.1699 8.38h11.73v39.9h-11.73z" class="G"/><g class="B"><path d="M228.89 49.29h-11.72c-.5522 0-1-.4477-1-1V8.38c0-.5523.4478-1 1-1h11.72a1 1 0 0 1 1 1v39.91c0 .2652-.1053.5196-.2929.7071a1 1 0 0 1-.7071.2929zm-10.72-2h9.72V9.38h-9.72z"/><path d="M232.92 49.29h-67.18a1 1 0 1 1 0-2h67.18a1 1 0 1 1 0 2z"/></g><path d="M179.64 11.5h-13.9a1 1 0 1 1 0-2h13.9a1 1 0 1 1 0 2z" class="H"/><path d="M55.9099 90.99H1.5V43.52l7.8699-9.54h46.54v57.01z"/><path d="M55.9099 91.99H1.5a1 1 0 0 1-1-1V43.5c-.0005-.2337.0809-.4601.23-.64l7.86-9.52a1 1 0 0 1 .7699-.36h46.54c.5523 0 1.0001.4477 1.0001 1v57a1 1 0 0 1-.2859.7101c-.1856.1894-.4389.2973-.7042.2999zM2.5 89.99h52.4099v-55H9.84l-7.34 8.9z" class="B"/><path d="M1.5 43.52h7.78l.0899-9.54L1.5 43.52z"/><path d="M9.28 44.5H1.5a1 1 0 0 1-.9-.58 1 1 0 0 1 .13-1.06l7.86-9.52a1 1 0 0 1 1.77.65l-.08 9.51a1 1 0 0 1-1 1zm-5.69-2h4.7v-5.73z" class="B"/><path d="M12.37 62.48c0-9.9388 8.0013-17.94 17.94-17.94s17.94 8.0012 17.94 17.94-8.0012 17.94-17.94 17.94-17.94-8.0012-17.94-17.94z"/><path d="M30.3099 81.42c-7.6623 0-14.5698-4.6168-17.5001-11.6966s-1.3063-15.2279 4.1147-20.6431 13.5706-7.0307 20.6473-4.0929S49.2581 54.8376 49.25 62.4999c-.044 10.4388-8.5012 18.8872-18.9401 18.9201zm0-35.88c-9.3531 0-16.9362 7.5802-16.94 16.9333S20.9435 79.4126 30.2966 79.42s16.9423-7.567 16.9533-16.9201c.0001-9.3654-7.5746-16.9669-16.94-16.9999z" class="B"/><path d="M30.31 62.4999L39.42 77.96c-7.0075 4.1306-15.9173 3.0295-21.7084-2.6828s-7.0141-14.6061-2.9798-21.6695 12.3161-10.5286 20.1785-8.4427S48.2477 54.3656 48.25 62.4999z" class="G"/><path d="M30.3099 81.42c-7.6623 0-14.5698-4.6168-17.5001-11.6966s-1.3063-15.2279 4.1147-20.6431 13.5706-7.0307 20.6473-4.0929S49.2581 54.8376 49.25 62.4999c0 .5523-.4478 1.0001-1.0001 1.0001h-16.19l8.22 13.9999c.1364.2287.176.5022.1101.7601a1.001 1.001 0 0 1-.4601.61c-2.9216 1.6932-6.2432 2.5737-9.62 2.55zm0-35.88c-7.0255-.0109-13.3286 4.3158-15.8436 10.8758s-.7198 13.9915 4.5124 18.68 12.8154 5.6609 19.0612 2.4442l-8.59-14.57a1 1 0 0 1-.0087-1.005c.1778-.3122.5094-.505.8687-.505h16.91c-.5482-8.9458-7.9474-15.9294-16.91-15.96zm47.22 96.44h-4.4c-.5522 0-1-.4477-1-1s.4478-1 1-1h4.4a1 1 0 1 1 0 2z" class="B"/><path d="M49.4999 113.81s-3.47-7.14-4.17-7.23c-2.4699-.33-2.1699 2.84-2.1699 2.84s-5.14-4.86-7.2801-3.84-5.4 2.31-4.6 3.9 9.3601 8.46 9.3601 8.46z" class="C"/><g class="B"><path d="M40.64 118.94a1 1 0 0 1-.63-.22c-2-1.64-8.79-7.13-9.63-8.79a2 2 0 0 1-.11-1.62c.51-1.45 2.53-2.4 4.49-3.31l.69-.32c2-.93 5 1.15 7 2.75a3 3 0 0 1 .73-1.17 2.69 2.69 0 0 1 2.32-.67c.55.07 1.23.16 4.94 7.78.1027.2464.1027.5236 0 .77a1 1 0 0 1-.52.57l-8.86 4.13c-.1298.0669-.274.1012-.42.1zm-4-12.52c-.1031-.0014-.2054.019-.3.06l-.7.33c-.94.44-3.43 1.6-3.46 2.18.44.88 4.64 4.56 8.63 7.78l7.37-3.44a50.891 50.891 0 0 0-3.21-5.78.54.54 0 0 0-.41.15 2.52 2.52 0 0 0-.38 1.62 1 1 0 0 1-1.68.82c-2.02-1.88-4.74-3.72-5.91-3.72zm8.21 1z"/><path d="M41.5899 113.83c-.5086.0036-.9389-.375-1-.88-.3699-3 1.3601-4.27 2.3301-4.5a1 1 0 0 1 .5 1.93c-.13 0-1.08.42-.85 2.33.0646.5463-.3241 1.0423-.8701 1.11z"/></g><path d="M118.85 37.67h-48.2c-.5523 0-1.0001-.4477-1.0001-1s.4478-1 1.0001-1h48.2a1 1 0 1 1 0 2zm-13.41 11.62H72.11a1 1 0 1 1 0-2h33.33a1 1 0 1 1 0 2zm28.57 10.97H88.77a1 1 0 1 1 0-2h45.24a1 1 0 1 1 0 2zm-53.36 0h-7.5201c-.5522 0-1-.4477-1-1s.4478-1 1-1H80.65a1 1 0 1 1 0 2zm94.33-39.76h-9.14a1 1 0 1 1 0-2h9.14a1 1 0 1 1 0 2z" class="H"/><path d="M121.7578 145.362a1.966 1.966 0 0 1 .5693-2.7273h0a1.966 1.966 0 0 1 2.7272.5693l8.6867 13.2695a1.966 1.966 0 0 1-.5693 2.7273h0a1.966 1.966 0 0 1-2.7272-.5693z" class="E"/><path d="M132.1 160.5c-.2048-.0001-.4091-.0203-.61-.06a2.94 2.94 0 0 1-1.88-1.28l-8.69-13.27a3 3 0 0 1-.42-2.23c.2762-1.1526 1.205-2.0345 2.3702-2.2508s2.3486.274 3.0198 1.2508l8.7 13.25a2.88 2.88 0 0 1 .42 2.23c-.2983 1.3665-1.5014 2.3455-2.9 2.36zm-8.69-17.21c-.1882.0024-.3719.0578-.53.1599a.94.94 0 0 0-.42.6101c-.0621.2521-.0109.5187.14.7299l8.68 13.2701c.3004.4416.8948.5694 1.35.29h0a1 1 0 0 0 .28-1.3401l-8.69-13.2699a1 1 0 0 0-.61-.42z" class="B"/><path d="M107.99 136.51c0-5.7284 4.6116-10.34 10.34-10.34s10.3399 4.6116 10.3399 10.34-4.6116 10.34-10.3399 10.34-10.34-4.6117-10.34-10.34z" class="E"/><path d="M118.35 147.85c-.7861-.0006-1.5701-.081-2.34-.24-5.9063-1.2349-9.8113-6.8787-8.8847-12.8412s6.3599-10.1552 12.3625-9.5396 10.4718 5.8241 10.1687 11.8505-5.2724 10.7601-11.3065 10.7703zm0-20.69c-4.2734.01-7.9949 2.919-9.0365 7.0635s.8625 8.4672 4.6234 10.4964 8.4192 1.247 11.3112-1.8991 3.2799-7.8537.942-11.4307h0c-1.3598-2.0662-3.4865-3.5057-5.9101-4.0001-.6471-.1435-1.3072-.2206-1.97-.23z" class="B"/><path d="M111.7099 136.51a6.606 6.606 0 0 1 13.2401 0 6.606 6.606 0 0 1-13.2401 0z"/><path d="M118.3399 144.1199c-3.7793.0018-6.9872-2.7702-7.5336-6.5098s1.7344-7.3135 5.3562-8.3931 7.4872.6624 9.0774 4.0908.4235 7.5045-2.74 9.5721c-1.2368.8085-2.6823 1.2394-4.16 1.24zm0-13.2299a5.61 5.61 0 0 0-4.9379 2.9455c-.9795 1.8149-.8843 4.0208.2479 5.7445 1.0641 1.7578 3.0026 2.7948 5.0555 2.7043s3.8926-1.2943 4.7977-3.139a5.62 5.62 0 0 0-.4532-5.7154h0c-.8137-1.2473-2.0915-2.1184-3.55-2.42-.3882-.0802-.7835-.1205-1.18-.1199z" class="B"/><path d="M52.12 146.95H28.53c-.5522 0-1-.4477-1-1v-15.68c0-.5523.4478-1 1-1a1 1 0 0 1 1 1v14.68h22.59a1 1 0 1 1 0 2zm-19.9901-3.6a1.061 1.061 0 0 1-.42-.0901 1 1 0 0 1-.5213-.5631c-.0919-.2496-.0806-.5256.0314-.7669 1.1-2.3499 3.75-6 6.79-4.75a7.452 7.452 0 0 1 2.49 1.68c.62.6001.76.7401 2.1899.3201 2.8801-.84 5.2401-3.8101 5.27-3.8401a1 1 0 0 1 1.4-.1699c.2105.1637.347.4048.3788.6695a1 1 0 0 1-.2087.7404c-.11.14-2.77 3.5001-6.2801 4.5201-2.36.6899-3.1699.14-4.1399-.8-.5262-.5513-1.1636-.9842-1.87-1.27-1.68-.7-3.65 2.5499-4.2 3.74-.1641.3544-.5194.5809-.9101.58z" class="H"/><path d="M121.4499 149.57a4.552 4.552 0 0 0 .15 2.28c.6001 2.16 2.0001 4.28 4.16 4.93 1.8598.5123 3.8483-.0909 5.1101-1.55a5.53 5.53 0 0 0 .9999-5.31c-.6599-1.91-2.63-4-4.7999-3.76-2.03.22-5.08 1.22-5.6201 3.41z" class="C"/><path d="M127.08 157.97a5.551 5.551 0 0 1-1.6101-.23c-2.23-.67-3.9999-2.78-4.8299-5.63a5.55 5.55 0 0 1-.1601-2.78h0c.65-2.63 3.88-3.89 6.4401-4.16s5 2 5.85 4.42a6.53 6.53 0 0 1-1.14 6.29c-1.1396 1.3264-2.8013 2.0897-4.55 2.09zm-4.6601-8.16a3.58 3.58 0 0 0 .15 1.77c.6001 2.18 1.9 3.77 3.4801 4.25a4 4 0 0 0 4.06-1.25 4.55 4.55 0 0 0 .7699-4.34c-.56-1.62-2.2-3.25-3.75-3.08s-4.31 1-4.71 2.65z" class="B"/></g><defs ><path id="B" d="M221.25 110.91c0-1.1191.9009-2.02 2.02-2.02a2.016 2.016 0 1 1 0 4.04c-1.1191 0-2.02-.9009-2.02-2.02z"/><path id="C" d="M94.7699 109.34a2.016 2.016 0 0 1 2.02-2.02c1.1191 0 2.02.9009 2.02 2.02s-.9009 2.02-2.02 2.02a2.016 2.016 0 0 1-2.02-2.02z"/><path id="D" d="M122.05 109.71c0-2.9196 2.7295-5.27 6.12-5.27s6.12 2.3504 6.12 5.27-2.7296 5.27-6.12 5.27-6.12-2.3504-6.12-5.27z"/><path id="E" d="M134.01 157.02h-8.87a1 1 0 0 1-1-1v-10a1 1 0 0 1 1-1h8.87a1 1 0 0 1 1 1v10a1 1 0 0 1-1 1zm-7.87-2h6.87v-8h-6.87z"/><path id="F" d="M25.3199 16.95c0-1.4293 1.1507-2.58 2.58-2.58s2.58 1.1507 2.58 2.58-1.1507 2.58-2.58 2.58-2.58-1.1507-2.58-2.58z"/></defs></svg>